<?xml version="1.0" encoding="UTF-8" standalone="no"?>
<!-- Created with Inkscape (http://www.inkscape.org/) -->

<svg
   width="59.266499mm"
   height="67.733154mm"
   viewBox="0 0 59.266499 67.733154"
   version="1.1"
   id="svg1"
   xml:space="preserve"
   inkscape:version="1.3.2 (091e20e, 2023-11-25)"
   sodipodi:docname="book2.svg"
   xmlns:inkscape="http://www.inkscape.org/namespaces/inkscape"
   xmlns:sodipodi="http://sodipodi.sourceforge.net/DTD/sodipodi-0.dtd"
   xmlns="http://www.w3.org/2000/svg"
   xmlns:svg="http://www.w3.org/2000/svg"><sodipodi:namedview
     id="namedview1"
     pagecolor="#ffffff"
     bordercolor="#000000"
     borderopacity="0.25"
     inkscape:showpageshadow="2"
     inkscape:pageopacity="0.0"
     inkscape:pagecheckerboard="0"
     inkscape:deskcolor="#d1d1d1"
     inkscape:document-units="mm"
     inkscape:zoom="0.71357323"
     inkscape:cx="397.29629"
     inkscape:cy="53.953818"
     inkscape:window-width="1392"
     inkscape:window-height="944"
     inkscape:window-x="0"
     inkscape:window-y="25"
     inkscape:window-maximized="0"
     inkscape:current-layer="layer1" /><defs
     id="defs1" /><g
     inkscape:label="Layer 1"
     inkscape:groupmode="layer"
     id="layer1"><path
       d="M 12.699965,0 C 5.6885258,0 0,5.688526 0,12.699965 v 42.333218 c 0,7.011436 5.6885258,12.699969 12.699965,12.699969 h 38.099893 4.233324 c 2.341553,0 4.233318,-1.891774 4.233318,-4.233327 0,-2.341559 -1.891765,-4.233324 -4.233318,-4.233324 V 50.79986 c 2.341553,0 4.233318,-1.89177 4.233318,-4.233323 V 4.233322 C 59.2665,1.891766 57.374735,0 55.033182,0 h -4.233324 z m 0,50.79986 h 33.86657 v 8.466641 h -33.86657 c -2.341556,0 -4.2333222,-1.891764 -4.2333222,-4.233318 0,-2.341558 1.8917662,-4.233323 4.2333222,-4.233323 z m 4.233321,-31.749913 c 0,-1.164163 0.952498,-2.116661 2.116661,-2.116661 h 25.399929 c 1.164162,0 2.116659,0.952498 2.116659,2.116661 0,1.164163 -0.952497,2.116661 -2.116659,2.116661 H 19.049947 c -1.164163,0 -2.116661,-0.952498 -2.116661,-2.116661 z m 2.116661,6.349982 h 25.399929 c 1.164162,0 2.116659,0.952498 2.116659,2.116662 0,1.164161 -0.952497,2.116659 -2.116659,2.116659 H 19.049947 c -1.164163,0 -2.116661,-0.952498 -2.116661,-2.116659 0,-1.164164 0.952498,-2.116662 2.116661,-2.116662 z"
       id="path1"
       style="stroke-width:0.132;stroke-dasharray:none;fill:#459db9;fill-opacity:1" /></g></svg>
