<?xml version="1.0" encoding="UTF-8" standalone="no"?>
<!-- Created with Inkscape (http://www.inkscape.org/) -->

<svg
   width="84.666496mm"
   height="59.269993mm"
   viewBox="0 0 84.666497 59.269993"
   version="1.1"
   id="svg1"
   xml:space="preserve"
   inkscape:version="1.3.2 (091e20e, 2023-11-25)"
   sodipodi:docname="group2.svg"
   xmlns:inkscape="http://www.inkscape.org/namespaces/inkscape"
   xmlns:sodipodi="http://sodipodi.sourceforge.net/DTD/sodipodi-0.dtd"
   xmlns="http://www.w3.org/2000/svg"
   xmlns:svg="http://www.w3.org/2000/svg"><sodipodi:namedview
     id="namedview1"
     pagecolor="#ffffff"
     bordercolor="#000000"
     borderopacity="0.25"
     inkscape:showpageshadow="2"
     inkscape:pageopacity="0.0"
     inkscape:pagecheckerboard="0"
     inkscape:deskcolor="#d1d1d1"
     inkscape:document-units="mm"
     inkscape:zoom="0.71357323"
     inkscape:cx="397.29629"
     inkscape:cy="53.953818"
     inkscape:window-width="1392"
     inkscape:window-height="944"
     inkscape:window-x="0"
     inkscape:window-y="25"
     inkscape:window-maximized="0"
     inkscape:current-layer="layer1" /><defs
     id="defs1" /><g
     inkscape:label="Layer 1"
     inkscape:groupmode="layer"
     id="layer1"
     transform="translate(0,-4.0583638e-4)"><path
       d="m 9.5249814,7.4121678 a 7.4083191,7.4083191 0 1 1 14.8166366,0 7.4083191,7.4083191 0 1 1 -14.8166366,0 z M 8.4666485,28.274524 c -1.3229124,1.481663 -2.1166609,3.452805 -2.1166609,5.595926 0,2.143121 0.7937485,4.114263 2.1166609,5.595926 V 28.261295 Z M 27.569526,21.752557 c -3.929052,3.479264 -6.402902,8.572484 -6.402902,14.234555 0,4.537596 1.587497,8.704775 4.233326,11.97237 v 2.844269 c 0,2.341555 -1.891771,4.233322 -4.233326,4.233322 h -8.466649 c -2.34156,0 -4.2333265,-1.891767 -4.2333265,-4.233322 V 47.258339 C 3.4660332,44.877095 0,39.783876 0,33.87045 0,25.681612 6.6277971,19.053812 14.816636,19.053812 h 4.233327 c 3.174994,0 6.111863,0.992186 8.519563,2.685515 z M 59.26655,50.803751 v -2.844269 c 2.645829,-3.267595 4.233326,-7.434774 4.233326,-11.97237 0,-5.662071 -2.47385,-10.755291 -6.402902,-14.247785 2.4077,-1.693329 5.344569,-2.685515 8.519563,-2.685515 h 4.233327 c 8.188839,0 14.816636,6.6278 14.816636,14.816638 0,5.913426 -3.466033,11.006645 -8.466649,13.387889 v 3.545412 c 0,2.341555 -1.891766,4.233322 -4.233326,4.233322 h -8.466649 c -2.34156,0 -4.233326,-1.891767 -4.233326,-4.233322 z M 60.324882,7.4121678 a 7.4083191,7.4083191 0 1 1 14.816637,0 7.4083191,7.4083191 0 1 1 -14.816637,0 z M 76.199851,28.274524 v 11.205081 c 1.322913,-1.494892 2.116661,-3.452805 2.116661,-5.595926 0,-2.143121 -0.793748,-4.114262 -2.116661,-5.595926 z M 42.333248,0.00384949 a 8.46665,8.46665 0 1 1 0,16.93329951 8.46665,8.46665 0 1 1 0,-16.93329951 z M 31.749938,35.987112 c 0,2.143121 0.793749,4.101034 2.116661,5.595927 V 30.377957 c -1.322912,1.494893 -2.116661,3.452806 -2.116661,5.595926 z m 19.049963,-5.595926 v 11.205082 c 1.322912,-1.494893 2.116661,-3.452806 2.116661,-5.595926 0,-2.143121 -0.793749,-4.114263 -2.116661,-5.595926 z m 8.466649,5.595926 c 0,5.913426 -3.466034,11.006647 -8.466649,13.387893 v 5.662068 c 0,2.34156 -1.891771,4.233326 -4.233327,4.233326 h -8.466648 c -2.341561,0 -4.233327,-1.891766 -4.233327,-4.233326 V 49.375005 C 28.865984,46.993759 25.39995,41.900538 25.39995,35.987112 c 0,-8.188837 6.627798,-14.816637 14.816637,-14.816637 h 4.233326 c 8.188839,0 14.816637,6.6278 14.816637,14.816637 z"
       id="path1"
       style="stroke-width:0.132291;fill:#459db9;fill-opacity:1" /></g></svg>
